<svg xmlns="http://www.w3.org/2000/svg" version="1.1" xmlns:xlink="http://www.w3.org/1999/xlink" xmlns:svgjs="http://svgjs.dev/svgjs" width="128" height="128" viewBox="0 0 128 128"><g transform="matrix(0.8046875,0,0,0.8046875,12.23105779541315,12.038958209315396)"><svg viewBox="0 0 96 97" data-background-color="#000000" preserveAspectRatio="xMidYMid meet" height="129" width="128" xmlns="http://www.w3.org/2000/svg" xmlns:xlink="http://www.w3.org/1999/xlink"><g id="tight-bounds" transform="matrix(1,0,0,1,0.2506645790324029,0.054850220000005834)"><svg viewBox="0 0 95.48052954132237 95.481" height="95.481" width="95.48052954132237"><g><svg viewBox="0 0 95.48052954132237 95.481" height="95.481" width="95.48052954132237"><g><svg viewBox="0 0 95.48052954132237 95.481" height="95.481" width="95.48052954132237"><g id="textblocktransform"><svg viewBox="0 0 95.48052954132237 95.481" height="95.481" width="95.48052954132237" id="textblock"><g><svg viewBox="0 0 95.48052954132237 95.481" height="95.481" width="95.48052954132237"><g><svg viewBox="0 0 95.48052954132237 95.481" height="95.481" width="95.48052954132237"><g><svg xmlns="http://www.w3.org/2000/svg" xmlns:xlink="http://www.w3.org/1999/xlink" xml:space="preserve" style="shape-rendering:geometricPrecision;text-rendering:geometricPrecision;image-rendering:optimizeQuality;" viewBox="0 0 20 20.00009854546888" x="0" y="0" fill-rule="evenodd" clip-rule="evenodd" id="icon-0" width="95.48052954132237" height="95.481" class="icon-icon-0" data-fill-palette-color="accent"><g fill="#f84e45" data-fill-palette-color="accent"><polygon class="" points="9.94665,0 11.9715,18.0703 7.92176,18.0703 " fill="#f84e45" data-fill-palette-color="accent"></polygon><polygon class="" points="20.0038,9.36975 16.168,18.0703 12.7694,18.0703 " fill="#f84e45" data-fill-palette-color="accent"></polygon><polygon class="" points="-0,9.36975 3.83588,18.0703 7.23436,18.0703 " fill="#f84e45" data-fill-palette-color="accent"></polygon><polygon class="" points="5.64047,10.7445 5.64047,14.941 7.19616,16.786 7.63026,14.3984 " fill="#f84e45" data-fill-palette-color="accent"></polygon><polygon class="" points="14.1963,10.8711 14.1963,15.0676 12.6407,16.9127 12.2066,14.525 " fill="#f84e45" data-fill-palette-color="accent"></polygon><polygon class="" points="3.86788,18.5949 16.0233,18.5949 16.0233,20.2953 3.86788,20.2953 " fill="#f84e45" data-fill-palette-color="accent"></polygon></g></svg></g></svg></g></svg></g></svg></g></svg></g></svg></g><defs></defs></svg><rect width="95.48052954132237" height="95.481" fill="none" stroke="none" visibility="hidden"></rect></g></svg></g></svg>