<svg xmlns="http://www.w3.org/2000/svg" version="1.1" xmlns:xlink="http://www.w3.org/1999/xlink" xmlns:svgjs="http://svgjs.dev/svgjs" width="1500" height="1500" viewBox="0 0 1500 1500"><rect width="1500" height="1500" fill="#000000"></rect><g transform="matrix(0.6666666666666666,0,0,0.6666666666666666,249.39393939393938,687.9505797304562)"><svg viewBox="0 0 396 49" data-background-color="#000000" preserveAspectRatio="xMidYMid meet" height="185" width="1500" xmlns="http://www.w3.org/2000/svg" xmlns:xlink="http://www.w3.org/1999/xlink"><g id="tight-bounds" transform="matrix(1,0,0,1,0.2400000000000091,0.1520669719539285)"><svg viewBox="0 0 395.52 47.98756952983179" height="47.98756952983179" width="395.52"><g><svg viewBox="0 0 476.0871153892774 57.7626" height="47.98756952983179" width="395.52"><g><svg viewBox="0 0 476.0871153892774 57.7626" height="57.7626" width="476.0871153892774"><g id="textblocktransform"><svg viewBox="0 0 476.0871153892774 57.7626" height="57.7626" width="476.0871153892774" id="textblock"><g><svg viewBox="0 0 476.0871153892774 57.7626" height="57.7626" width="476.0871153892774"><g><svg><g></g><g></g></svg></g><g><svg><g></g><g><svg></svg></g></svg></g><g id="text-0"><svg viewBox="0 0 476.0871153892774 57.7626" height="57.7626" width="476.0871153892774"><g transform="matrix(1,0,0,1,0,10.856299999999997)"><svg width="151.70000000000002" viewBox="4.25 -35.35 151.69 35.7" height="35.7" data-palette-color="#d7dbde"><path d="M24.45-24.65L24.45-24.65Q24.45-27.8 22.6-29.65 20.75-31.5 16.55-31.5L16.55-31.5 8.25-31.5 8.25-17.8 16.6-17.8Q19.35-17.8 21.08-18.65 22.8-19.5 23.63-21.05 24.45-22.6 24.45-24.65ZM4.25-35L16.55-35Q20.65-35 23.28-33.6 25.9-32.2 27.2-29.88 28.5-27.55 28.5-24.65L28.5-24.65Q28.5-22.6 27.83-20.75 27.15-18.9 25.7-17.45 24.25-16 22-15.15 19.75-14.3 16.6-14.3L16.6-14.3 8.25-14.3 8.25 0 4.25 0 4.25-35ZM15.15-15.8L19.45-15.8 29.15 0 24.6 0 15.15-15.8ZM50.85 0.35L50.85 0.35Q47.15 0.35 43.97-0.95 40.8-2.25 38.42-4.63 36.05-7 34.72-10.28 33.4-13.55 33.4-17.5L33.4-17.5Q33.4-21.45 34.72-24.73 36.05-28 38.42-30.38 40.8-32.75 43.97-34.05 47.15-35.35 50.85-35.35L50.85-35.35Q54.5-35.35 57.67-34.05 60.85-32.75 63.2-30.38 65.55-28 66.87-24.73 68.2-21.45 68.2-17.5L68.2-17.5Q68.2-13.55 66.87-10.28 65.55-7 63.2-4.63 60.85-2.25 57.67-0.95 54.5 0.35 50.85 0.35ZM50.85-3.15L50.85-3.15Q54.6-3.15 57.6-4.9 60.6-6.65 62.35-9.88 64.1-13.1 64.1-17.5L64.1-17.5Q64.1-21.95 62.35-25.18 60.6-28.4 57.6-30.13 54.6-31.85 50.85-31.85L50.85-31.85Q47.05-31.85 44.02-30.13 41-28.4 39.25-25.18 37.5-21.95 37.5-17.5L37.5-17.5Q37.5-13.1 39.25-9.88 41-6.65 44.02-4.9 47.05-3.15 50.85-3.15ZM85-17.25L95.34-35 99.8-35 87-13.45 87 0 83 0 83-13.4 70.2-35 74.64-35 85-17.25ZM126.89 0L115.44-31.5 113.79-31.5 102.24 0 98.19 0 110.99-35 118.19-35 130.94 0 126.89 0ZM104.44-9.2L104.44-12.7 124.84-12.7 124.84-9.2 104.44-9.2ZM135.59-35L139.59-35 139.59-3.5 155.94-3.5 155.94 0 135.59 0 135.59-35Z" opacity="1" transform="matrix(1,0,0,1,0,0)" fill="#d7dbde" class="undefined-tk-0"></path></svg></g><g><svg xmlns="http://www.w3.org/2000/svg" xmlns:xlink="http://www.w3.org/1999/xlink" xml:space="preserve" style="shape-rendering:geometricPrecision;text-rendering:geometricPrecision;image-rendering:optimizeQuality;" viewBox="0 0 20 20.00009854546888" x="165.33740000000003" y="0" fill-rule="evenodd" clip-rule="evenodd" id="dxe-0" width="57.76231538927732" height="57.7626" class="icon-dxe-0" data-fill-palette-color="accent"><g fill="#f84e45" data-fill-palette-color="accent"><polygon class="" points="9.94665,0 11.9715,18.0703 7.92176,18.0703 " fill="#f84e45" data-fill-palette-color="accent"></polygon><polygon class="" points="20.0038,9.36975 16.168,18.0703 12.7694,18.0703 " fill="#f84e45" data-fill-palette-color="accent"></polygon><polygon class="" points="-0,9.36975 3.83588,18.0703 7.23436,18.0703 " fill="#f84e45" data-fill-palette-color="accent"></polygon><polygon class="" points="5.64047,10.7445 5.64047,14.941 7.19616,16.786 7.63026,14.3984 " fill="#f84e45" data-fill-palette-color="accent"></polygon><polygon class="" points="14.1963,10.8711 14.1963,15.0676 12.6407,16.9127 12.2066,14.525 " fill="#f84e45" data-fill-palette-color="accent"></polygon><polygon class="" points="3.86788,18.5949 16.0233,18.5949 16.0233,20.2953 3.86788,20.2953 " fill="#f84e45" data-fill-palette-color="accent"></polygon></g></svg></g><g transform="matrix(1,0,0,1,236.73711538927736,11.2063)"><svg width="239.35000000000002" viewBox="4.25 -35 239.33 35" height="35" data-palette-color="#d7dbde"><path d="M24.45-24.65L24.45-24.65Q24.45-27.8 22.6-29.65 20.75-31.5 16.55-31.5L16.55-31.5 8.25-31.5 8.25-17.8 16.6-17.8Q19.35-17.8 21.08-18.65 22.8-19.5 23.63-21.05 24.45-22.6 24.45-24.65ZM4.25-35L16.55-35Q20.65-35 23.28-33.6 25.9-32.2 27.2-29.88 28.5-27.55 28.5-24.65L28.5-24.65Q28.5-22.6 27.83-20.75 27.15-18.9 25.7-17.45 24.25-16 22-15.15 19.75-14.3 16.6-14.3L16.6-14.3 8.25-14.3 8.25 0 4.25 0 4.25-35ZM15.15-15.8L19.45-15.8 29.15 0 24.6 0 15.15-15.8ZM58.45-35L58.45-31.5 39.5-31.5 39.5-19.55 53.75-19.55 53.75-16.05 39.5-16.05 39.5-3.5 58.45-3.5 58.45 0 35.5 0 35.5-35 58.45-35ZM63.85-31.5L63.85-35 90.1-35 90.1-31.5 79-31.5 79 0 75 0 75-31.5 63.85-31.5ZM119.39-35L119.39-31.5 100.44-31.5 100.44-19.55 114.69-19.55 114.69-16.05 100.44-16.05 100.44-3.5 119.39-3.5 119.39 0 96.44 0 96.44-35 119.39-35ZM147.09-24.65L147.09-24.65Q147.09-27.8 145.24-29.65 143.39-31.5 139.19-31.5L139.19-31.5 130.89-31.5 130.89-17.8 139.24-17.8Q141.99-17.8 143.72-18.65 145.44-19.5 146.27-21.05 147.09-22.6 147.09-24.65ZM126.89-35L139.19-35Q143.29-35 145.92-33.6 148.54-32.2 149.84-29.88 151.14-27.55 151.14-24.65L151.14-24.65Q151.14-22.6 150.47-20.75 149.79-18.9 148.34-17.45 146.89-16 144.64-15.15 142.39-14.3 139.24-14.3L139.24-14.3 130.89-14.3 130.89 0 126.89 0 126.89-35ZM137.79-15.8L142.09-15.8 151.79 0 147.24 0 137.79-15.8ZM181.09-35L181.09-31.5 162.14-31.5 162.14-19.55 176.39-19.55 176.39-16.05 162.14-16.05 162.14-3.5 181.09-3.5 181.09 0 158.14 0 158.14-35 181.09-35ZM213.49 0L202.04-31.5 200.39-31.5 188.84 0 184.79 0 197.59-35 204.79-35 217.54 0 213.49 0ZM191.04-9.2L191.04-12.7 211.44-12.7 211.44-9.2 191.04-9.2ZM217.33-31.5L217.33-35 243.58-35 243.58-31.5 232.48-31.5 232.48 0 228.48 0 228.48-31.5 217.33-31.5Z" opacity="1" transform="matrix(1,0,0,1,0,0)" fill="#d7dbde" class="undefined-tk-1"></path></svg></g></svg></g></svg></g></svg></g></svg></g></svg></g><defs></defs></svg><rect width="395.52" height="47.98756952983179" fill="none" stroke="none" visibility="hidden"></rect></g></svg></g></svg>